<svg xmlns="http://www.w3.org/2000/svg" viewBox="0 0 140 140" width="140" height="140"><defs><linearGradient id="t" x1="0" y1="0" x2="1" y2="1"><stop offset="0" stop-color="#2DD4BF"/><stop offset="1" stop-color="#0D9488"/></linearGradient></defs><rect x="10" y="10" width="120" height="120" rx="30" fill="url(#t)"/><path transform="translate(21.34,106.00) scale(0.13688,-0.13688)" d="M411 299Q453 299 472.5 313.0Q492 327 492 359Q492 388 472.5 401.0Q453 414 411 414H259V299ZM259 30Q259 23 263.5 18.5Q268 14 287 12V0H81V12Q100 14 104.5 18.5Q109 23 109 30V496Q109 503 104.5 507.5Q100 512 81 514V526H439Q486 526 522.0 512.5Q558 499 582.0 476.0Q606 453 618.0 422.5Q630 392 630 359Q630 326 618.0 295.5Q606 265 582.0 242.5Q558 220 522.0 206.5Q486 193 439 193H259Z" fill="#fff"/></svg>