<svg xmlns="http://www.w3.org/2000/svg" viewBox="0 0 624 140" width="624" height="140"><defs><linearGradient id="t" x1="0" y1="0" x2="1" y2="1"><stop offset="0" stop-color="#2DD4BF"/><stop offset="1" stop-color="#0D9488"/></linearGradient></defs><rect x="10" y="10" width="120" height="120" rx="30" fill="url(#t)"/><path transform="translate(21.34,106.00) scale(0.13688,-0.13688)" d="M411 299Q453 299 472.5 313.0Q492 327 492 359Q492 388 472.5 401.0Q453 414 411 414H259V299ZM259 30Q259 23 263.5 18.5Q268 14 287 12V0H81V12Q100 14 104.5 18.5Q109 23 109 30V496Q109 503 104.5 507.5Q100 512 81 514V526H439Q486 526 522.0 512.5Q558 499 582.0 476.0Q606 453 618.0 422.5Q630 392 630 359Q630 326 618.0 295.5Q606 265 582.0 242.5Q558 220 522.0 206.5Q486 193 439 193H259Z" fill="#fff"/><path transform="translate(162.00,97.00) scale(0.11787,-0.11787)" d="M411 299Q453 299 472.5 313.0Q492 327 492 359Q492 388 472.5 401.0Q453 414 411 414H259V299ZM259 30Q259 23 263.5 18.5Q268 14 287 12V0H81V12Q100 14 104.5 18.5Q109 23 109 30V496Q109 503 104.5 507.5Q100 512 81 514V526H439Q486 526 522.0 512.5Q558 499 582.0 476.0Q606 453 618.0 422.5Q630 392 630 359Q630 326 618.0 295.5Q606 265 582.0 242.5Q558 220 522.0 206.5Q486 193 439 193H259Z" fill="#5EEAD4"/><path transform="translate(243.72,97.00) scale(0.11787,-0.11787)" d="M427 304Q471 304 487.5 320.5Q504 337 504 359Q504 381 487.5 397.5Q471 414 427 414H259V304ZM259 30Q259 23 263.5 18.5Q268 14 287 12V0H81V12Q100 14 104.5 18.5Q109 23 109 30V496Q109 503 104.5 507.5Q100 512 81 514V526H447Q558 526 608.0 485.5Q658 445 658 360Q658 291 617.5 252.0Q577 213 515 196L633 30Q645 12 662 12V0H454V12Q476 13 476 30Q476 32 468.0 44.0Q460 56 448.0 73.0Q436 90 421.5 109.5Q407 129 393.5 147.0Q380 165 370.0 179.0Q360 193 357 198H259Z" fill="#5EEAD4"/><path transform="translate(331.92,97.00) scale(0.11787,-0.11787)" d="M361 532Q425 532 481.5 514.5Q538 497 580.5 463.0Q623 429 648.0 379.0Q673 329 673 263Q673 197 648.0 147.0Q623 97 580.5 63.0Q538 29 481.5 13.0Q425 -3 361 -3Q297 -3 240.5 13.0Q184 29 141.5 63.0Q99 97 74.0 147.0Q49 197 49 263Q49 329 74.0 379.0Q99 429 141.5 463.0Q184 497 240.5 514.5Q297 532 361 532ZM361 410Q328 410 298.5 400.0Q269 390 246.5 371.5Q224 353 210.5 325.5Q197 298 197 263Q197 228 210.5 200.5Q224 173 246.5 154.5Q269 136 298.5 126.0Q328 116 361 116Q394 116 423.5 126.0Q453 136 475.5 154.5Q498 173 511.5 200.5Q525 228 525 263Q525 298 511.5 325.5Q498 353 475.5 371.5Q453 390 423.5 400.0Q394 410 361 410Z" fill="#5EEAD4"/><path transform="translate(420.13,97.00) scale(0.11787,-0.11787)" d="M175 12Q183 14 189.0 16.5Q195 19 195 29Q195 31 188.5 51.0Q182 71 171.0 103.5Q160 136 146.5 177.5Q133 219 118.5 262.0Q104 305 90.0 347.0Q76 389 65.0 422.5Q54 456 47.0 478.0Q40 500 39 503Q36 514 29 514V526H212V514Q203 512 197.0 509.5Q191 507 191 499Q191 496 196.5 478.0Q202 460 211.0 432.0Q220 404 231.0 370.5Q242 337 253.0 303.5Q264 270 273.5 240.0Q283 210 289 190H291Q297 209 306.0 238.5Q315 268 325.5 301.5Q336 335 346.5 369.0Q357 403 365.5 431.0Q374 459 379.0 477.5Q384 496 384 499Q384 507 376.5 509.5Q369 512 363 514V526H601V514Q594 512 589.0 509.5Q584 507 584 499Q584 498 589.0 479.0Q594 460 602.0 431.0Q610 402 620.0 366.5Q630 331 639.0 297.5Q648 264 656.0 235.0Q664 206 668 190H670Q673 202 681.5 228.5Q690 255 701.0 288.0Q712 321 723.5 356.5Q735 392 745.0 422.0Q755 452 761.5 473.0Q768 494 768 497Q768 506 761.5 509.0Q755 512 747 514V526H915V514Q907 513 903.5 508.0Q900 503 898 495Q897 492 890.0 470.5Q883 449 872.0 416.5Q861 384 847.0 342.5Q833 301 818.0 258.5Q803 216 789.5 175.0Q776 134 765.0 101.5Q754 69 747.5 48.5Q741 28 741 26Q741 17 747.5 15.0Q754 13 761 12V0H553V12Q573 15 573 26Q573 38 563.0 75.5Q553 113 538.5 163.0Q524 213 507.5 269.5Q491 326 477 376H475Q463 332 445.0 274.5Q427 217 410.0 164.0Q393 111 381.0 72.0Q369 33 369 26Q369 12 391 12V0H175Z" fill="#5EEAD4"/><path transform="translate(534.50,97.00) scale(0.11787,-0.11787)" d="M603 122Q611 122 615.0 127.5Q619 133 621 150H633V-23H621Q619 -7 615.0 -3.5Q611 0 603 0H81V12Q100 14 104.5 18.5Q109 23 109 30V496Q109 503 104.5 507.5Q100 512 81 514V526H287V514Q268 512 263.5 507.5Q259 503 259 496V122Z" fill="#5EEAD4"/></svg>